<svg xmlns="http://www.w3.org/2000/svg" viewBox="0 0 1200 800" width="1200" height="800" role="img" aria-label="FGY · Jovens">
  <defs>
    <linearGradient id="bg" x1="0" y1="0" x2="1" y2="1">
      <stop offset="0" stop-color="#1b2027"/>
      <stop offset="0.55" stop-color="#12161c"/>
      <stop offset="1" stop-color="#0b0e13"/>
    </linearGradient>
    <radialGradient id="glow" cx="0.28" cy="0.22" r="0.9">
      <stop offset="0" stop-color="#ffffff" stop-opacity="0.10"/>
      <stop offset="0.5" stop-color="#ffffff" stop-opacity="0.02"/>
      <stop offset="1" stop-color="#ffffff" stop-opacity="0"/>
    </radialGradient>
    <pattern id="grid" width="34" height="34" patternUnits="userSpaceOnUse">
      <path d="M34 0H0V34" fill="none" stroke="#ffffff" stroke-opacity="0.035" stroke-width="1"/>
    </pattern>
  </defs>

  <rect width="1200" height="800" fill="url(#bg)"/>
  <rect width="1200" height="800" fill="url(#grid)"/>
  <rect width="1200" height="800" fill="url(#glow)"/>

  <!-- motivo (watermark) -->
  <g transform="translate(600 380) scale(5.4) translate(-50 -50)"
     fill="none" stroke="#ffffff" stroke-opacity="0.14"
     stroke-width="3" stroke-linecap="round" stroke-linejoin="round"
     color="#ffffff">
    
    <path d="M50 20c10 14 20 20 20 34a20 20 0 0 1-40 0c0-8 4-12 8-16 2 6 6 8 6 8 0-10-2-16 6-26Z"/>
  </g>

  <!-- rótulo -->
  <g transform="translate(64 690)">
    <rect x="0" y="-30" width="40" height="3" rx="1.5" fill="#ffffff" fill-opacity="0.5"/>
    <text x="0" y="8" font-family="Inter, Segoe UI, system-ui, sans-serif"
          font-size="34" font-weight="600" letter-spacing="0.14em"
          fill="#ffffff" fill-opacity="0.86">FGY · JOVENS</text>
  </g>
</svg>
